# xmcd CD database file
#
# Track frame offsets:
#	150
#	22312
#	38245
#	60312
#	78915
#	101370
#	123377
#	138267
#	162675
#	181875
#
# Disc length: 2750 seconds
#
# Revision: 1
# Processed by: cddbd v1.5.2PL0 Copyright (c) Steve Scherf et al.
# Submitted via: CDex 1.70beta2
#
DISCID=7f0abc0a
DTITLE=椿屋四重奏 - 薔薇とダイヤモンド
DYEAR=2005
DGENRE=Rock
TTITLE0=プロローグ
TTITLE1=手つかずの世界
TTITLE2=砂の薔薇
TTITLE3=螺旋階段
TTITLE4=紫陽花
TTITLE5=熱病
TTITLE6=踊り子
TTITLE7=朱い鳥
TTITLE8=君無しじゃいられない
TTITLE9=陽炎
EXTD=YEAR: 2005
EXTT0=
EXTT1=
EXTT2=
EXTT3=
EXTT4=
EXTT5=
EXTT6=
EXTT7=
EXTT8=
EXTT9=
PLAYORDER=
